# xmcd
#
# Track frame offsets: 
#        150
#        13718
#        27263
#        40928
#        56041
#        70021
#        84166
#        98769
#        112862
#        126715
#        138355
#        151285
#        165520
#        178428
#        191981
#        205511
#        218224
#        231979
#        246829
#        262017
#
# Disc length: 3651 seconds
#
# Revision: 0
# Processed by: cddbd v1.5.2PL0 Copyright (c) Steve Scherf et al.
# Submitted via: ExactAudioCopyFreeDBPlugin 1.0
#
DISCID=1d0e4114
DTITLE=Charley Patton - Dirt Road Blues
DYEAR=2008
DGENRE=Blues
TTITLE0=Screamin' And Hollerin' The Blues
TTITLE1=Down The Dirt Road Blues
TTITLE2=Pony Blues
TTITLE3=It Won't Be Long
TTITLE4=Pea Vine Blues
TTITLE5=Tom Rushen Blues
TTITLE6=A Spoonful Blues
TTITLE7=Shake It And Break It (But Don't Let It Fall, Mama)
TTITLE8=Elder Greene Blues
TTITLE9=Circle Round The Moon
TTITLE10=Some Of These Days I'll Be Gone
TTITLE11=When Your Way Gets Dark
TTITLE12=Heart Like Railwood Steel
TTITLE13=Jim Lee Blues (Part 1)
TTITLE14=High Water Everywhere (Part 1)
TTITLE15=Rattlesnake Blues
TTITLE16=Some Summer Day
TTITLE17=Moon Going Down
TTITLE18=Dry Well Blues
TTITLE19=Revenue Man Blues
EXTD=
EXTT0=
EXTT1=
EXTT2=
EXTT3=
EXTT4=
EXTT5=
EXTT6=
EXTT7=
EXTT8=
EXTT9=
EXTT10=
EXTT11=
EXTT12=
EXTT13=
EXTT14=
EXTT15=
EXTT16=
EXTT17=
EXTT18=
EXTT19=
PLAYORDER=
